<svg width="127" height="123" viewBox="0 0 127 123" fill="none" xmlns="http://www.w3.org/2000/svg">
<ellipse cx="63.4869" cy="61.5" rx="63.4869" ry="61.5" fill="#646464"/>
<path fill-rule="evenodd" clip-rule="evenodd" d="M118.125 61.288C118.125 90.7262 93.5219 114.517 63.2656 114.517C33.0094 114.517 8.40583 90.7262 8.40583 61.288C8.40583 56.6132 9.02626 52.0808 10.1912 47.7635L41.0559 47.8855C43.5777 47.8855 44.7722 48.5217 44.7722 50.1122C44.7722 52.2117 41.255 55.0746 34.3533 59.3372C42.715 63.6634 46.8295 67.4806 46.8295 71.0434C46.8295 72.8248 45.6349 73.6518 43.2459 73.6518H34.0215V49.7941H21.1471V84.4037H40.1268C47.3604 84.4037 52.5366 84.2129 55.9211 82.2406C59.5711 80.1412 61.4292 76.7693 61.4292 72.3794C61.4292 67.417 58.5093 62.5818 52.8685 58.7646C57.1157 55.3927 59.1729 51.9572 59.1729 47.7582C59.1729 40.8236 53.9303 37.2608 43.5113 37.2608H14.2979C23.3528 19.9224 41.8998 8.05867 63.2656 8.05867C84.6314 8.05867 103.178 19.9224 112.233 37.2608H96.7347C86.913 37.2608 79.4804 39.6784 74.105 44.8317C68.5306 50.1758 65.1461 58.3829 65.1461 67.5443C65.1461 75.4968 67.8006 83.3222 73.0432 91.0203L83.5285 84.4037C80.4095 79.5686 78.7504 74.6062 78.4849 69.5165H92.3547V84.4037H105.627V49.7941H92.3547V58.6374H79.8122C82.7322 51.0029 88.1739 47.8855 97.5974 47.8855L116.34 47.7654C117.505 52.0821 118.125 56.6139 118.125 61.288ZM122.107 61.288C122.107 92.7939 95.7629 118.335 63.2656 118.335C30.7683 118.335 4.42407 92.7939 4.42407 61.288C4.42407 29.782 30.7683 4.24142 63.2656 4.24142C95.7629 4.24142 122.107 29.782 122.107 61.288Z" fill="white"/>
</svg>
